<svg width="650" height="650" viewBox="0 0 650 650" fill="none" xmlns="http://www.w3.org/2000/svg">
<circle cx="321.5" cy="339.5" r="222" fill="#FFFEFE" stroke="black" stroke-width="4"/>
<path d="M73 336L84.2091 321.204C85.0467 320.098 85.5 318.749 85.5 317.362V312.384C85.5 311.62 84.8805 311 84.1163 311C83.724 311 83.3502 311.166 83.0877 311.458L79 316L67.5 330.5L56.5 345.5L43.5 365.5L31.5 386.5L26.051 399.962C24.023 404.973 22.5425 410.188 21.6355 415.517L20.0634 424.752C19.3557 428.91 19 433.12 19 437.337V445.039C19 450.992 19.7087 456.924 21.1112 462.709L21.3125 463.539C22.4349 468.169 23.996 472.682 25.9746 477.016L27.6636 480.716C31.521 489.165 36.9142 496.824 43.569 503.304L44.6824 504.388C49.8668 509.436 55.7545 513.707 62.1624 517.069L75.7215 524.182C80.5593 526.72 85.66 528.721 90.9327 530.151L105.786 534.179C110.252 535.39 114.821 536.186 119.435 536.555L150 539L190.5 538L242 531L296.5 517L356.398 497.648C359.795 496.551 363.109 495.212 366.315 493.643L433 461L481.457 428.543C484.482 426.517 487.355 424.274 490.053 421.831L533.5 382.5L571.5 339.5L588 319L609.179 285.537C611.721 281.521 613.875 277.274 615.612 272.851L624 251.5L628.5 235.5L631 218L631.552 209.445C631.85 204.825 631.72 200.187 631.163 195.591L630.713 191.882C630.238 187.967 629.456 184.095 628.372 180.303L626.493 173.726C624.837 167.93 622.488 162.354 619.497 157.12L614.522 148.414C611.518 143.157 607.889 138.284 603.714 133.9L596.531 126.357C592.194 121.804 587.302 117.814 581.97 114.481L574 109.5L562.5 103.5L544.287 95.8314C543.768 95.6127 543.21 95.5 542.646 95.5H539.109C537.03 95.5 535.86 97.8914 537.136 99.5326C537.376 99.84 537.683 100.087 538.035 100.255L548 105L570 116L579.076 121.899C586.305 126.598 592.669 132.508 597.889 139.369L601.944 144.698C605.634 149.548 608.72 154.829 611.132 160.425L615.072 169.567C618.335 177.137 620.328 185.194 620.97 193.412L621.947 205.927C622.315 210.632 622.238 215.361 621.717 220.051L620.877 227.603C620.294 232.853 619.158 238.027 617.487 243.038L614.984 250.549C613.664 254.509 612.015 258.353 610.055 262.039L595.081 290.205C593.031 294.061 590.648 297.73 587.96 301.172L567 328L542 356.5L490.558 406.564C487.525 409.516 484.247 412.206 480.76 414.605L428.509 450.554C425.175 452.848 421.661 454.868 418.002 456.594L352.5 487.5L286.5 510.5L239.5 521L198 528L149 529.5L113.91 526.067C106.675 525.359 99.5817 523.604 92.8522 520.855L75.4682 513.755C70.1734 511.592 65.1434 508.831 60.4763 505.525L57.8678 503.677C48.4496 497.006 40.9173 488.012 36.003 477.569C33.0195 471.229 31.0505 464.46 30.1678 457.509L28.8707 447.294C27.9617 440.136 28.0905 432.883 29.2533 425.761L29.9838 421.287C30.9907 415.12 32.7642 409.103 35.2633 403.376L43.5 384.5L53 365.5L73 336Z" fill="#FFFDFD" stroke="black" stroke-width="5"/>
<path d="M393.5 300.579V320.5L397.599 329.443C398.522 331.457 399 333.647 399 335.863C399 338.255 398.443 340.614 397.373 342.753L392.5 352.5H398.909C401.957 352.5 404.993 352.887 407.944 353.652L411.438 354.558C415.085 355.504 418.431 357.366 421.156 359.967C425.527 364.139 428 369.919 428 375.961V376.698C428 381.767 426.384 386.704 423.386 390.792L422.624 391.831C419.011 396.758 413.658 400.127 407.652 401.253L406.698 401.432C402.943 402.136 399.082 402.02 395.376 401.094L393.724 400.681C390.615 399.904 387.721 398.434 385.259 396.383C381.839 393.533 379.399 389.682 378.282 385.373L377.805 383.535C376.943 380.208 376.719 376.749 377.145 373.339L378 366.5L373.325 370.006C369.798 372.651 365.868 374.711 361.685 376.105L358.113 377.296C355.724 378.092 353.211 378.444 350.695 378.335C345.733 378.119 341.014 376.119 337.408 372.702L333.5 369H330.677C326.235 369 321.801 368.605 317.428 367.82L313.62 367.137C307.577 366.052 301.739 364.033 296.317 361.153L290.654 358.145C289.226 357.386 287.919 356.419 286.775 355.275L284.828 353.328C283.017 351.517 280.561 350.5 278 350.5L270.5 359.5L285.002 374.808C287.289 377.222 288.863 380.223 289.548 383.476C290.172 386.444 290.037 389.521 289.154 392.422L288.798 393.592C287.621 397.461 285.433 400.946 282.461 403.688L170.5 507L169.723 506.379C166.924 504.14 164.488 501.482 162.5 498.5L275.5 395.5L277 392L275.5 388L217 325.5L213 324L209 325.5L110 414L108 408L106 401.5L199.918 316.077C203.51 312.81 208.19 311 213.045 311C214.014 311 214.981 311.072 215.939 311.216L216.264 311.265C221.598 312.065 226.504 314.644 230.187 318.584L246 335.5L258.5 324L256.529 319.879C254.19 314.989 252.623 309.767 251.882 304.398C251.296 300.149 251.233 295.844 251.694 291.579L253 279.5L251 266C249.719 259.917 250.908 253.575 254.303 248.368L256.5 245C255.087 242.456 251.96 241.418 249.306 242.612L246.339 243.947C244.809 244.636 243.119 244.89 241.455 244.682L236.375 244.047C230.937 243.367 225.863 240.952 221.906 237.16C218.065 233.479 215.473 228.688 214.492 223.46L214.195 221.876C213.413 217.705 213.788 213.4 215.278 209.426C216.733 205.546 219.198 202.125 222.419 199.518L223.033 199.021C226.283 196.39 230.186 194.688 234.327 194.096C239.306 193.385 244.382 194.314 248.787 196.744L250.775 197.842C254.525 199.91 257.661 202.934 259.864 206.606C261.602 209.504 262.716 212.732 263.136 216.084L263.471 218.765C263.822 221.579 263.85 224.424 263.553 227.244L263 232.5L264 235L267 236L281.12 227.735C285.31 225.282 290.035 223.89 294.886 223.679L296.897 223.591C298.292 223.531 299.689 223.662 301.049 223.982C305.163 224.95 308.691 227.584 310.788 231.254L311.5 232.5H318L321.875 232.758C329.251 233.25 336.514 234.83 343.428 237.446L351.5 240.5L364 247.5L373.5 240L367.84 235.006C365.955 233.343 364.304 231.433 362.931 229.327L361.242 226.738C358.822 223.027 357.758 218.594 358.23 214.189C358.726 209.555 360.89 205.259 364.317 202.101L429 142.5L434.5 145.5L439 148.5L372 213.5L370.5 217.5L371.5 222L428 282L432 283L437 282L510.5 216.5L510.831 216.973C512.941 219.987 514.826 223.152 516.471 226.442L516.5 226.5L441.5 293.5H422.5L397 265.5L388 272L391.5 283L392.175 286.546C393.057 291.172 393.5 295.87 393.5 300.579Z" fill="black"/>
<circle cx="322" cy="299" r="48.5" fill="white"/>
<circle cx="322" cy="299" r="40.5" fill="black"/>
<path d="M264.704 256.507L260.5 261.5V263.17C260.5 266.719 260.752 270.263 261.254 273.777L261.5 275.5L269.5 266.5L274.183 261.037C277.055 257.685 280.218 254.594 283.634 251.799L289.5 247L302.5 238L302.396 237.91C300.14 235.977 297.657 234.328 295 233L284 239.5L276 245.5L272.953 248.141C269.989 250.71 267.231 253.507 264.704 256.507Z" fill="#FFFDFD"/>
<path d="M350.038 363.818L349.933 363.729C349.024 362.949 348.5 361.81 348.5 360.612C348.5 359.287 349.14 358.043 350.219 357.272L351.537 356.331C351.845 356.111 352.17 355.915 352.509 355.746L354.277 354.862C356.749 353.626 359.053 352.079 361.133 350.259L366 346L369.731 342.269C372.241 339.759 374.569 337.075 376.698 334.236L379.5 330.5L382.5 326L385.722 329.938C386.548 330.948 387 332.213 387 333.519C387 334.49 386.75 335.445 386.274 336.291L383.948 340.425C382.986 342.135 381.817 343.719 380.465 345.142L376.214 349.617C374.074 351.869 371.772 353.961 369.325 355.876L363.181 360.685C362.067 361.556 360.824 362.249 359.497 362.738L354.425 364.606C352.928 365.158 351.249 364.856 350.038 363.818Z" fill="white"/>
<circle cx="240" cy="219" r="13.5" fill="white"/>
<circle cx="404" cy="377" r="13.5" fill="white"/>
<path d="M251.423 268.5L108.616 269.024C107.236 272.156 106.232 275.44 105.625 278.808L105.5 279.5H253.5L251.423 268.5Z" fill="black"/>
<path d="M101 300L102 294.5L137.5 297L151.524 298.516C154.495 298.837 157.409 299.554 160.19 300.646L169.762 304.407C169.917 304.467 170.049 304.574 170.142 304.713C170.505 305.258 170.108 305.987 169.453 305.978L100 305L101 300Z" fill="black"/>
<path d="M287.5 397.5H499.5L490.5 406L275 409L287.5 397.5Z" fill="black"/>
<path d="M426 370.5H527L521.5 376L516.5 380.5H426V370.5Z" fill="black"/>
<path d="M394.5 346H545.33L545 352.5L542.5 355.5H394.5L393 352L394.5 346Z" fill="black"/>
<path d="M394.5 322H544.733L545 327L545.295 332.5H394.5V322Z" fill="black"/>
<path d="M401.212 295H541L542 299.5L542.695 304H395.5V300.712C395.5 299.913 395.668 299.123 395.992 298.392C396.909 296.329 398.955 295 401.212 295Z" fill="black"/>
<path d="M458 279H537.234L535.5 273.5L534.143 268.5H499.25H468.5L458 279Z" fill="black"/>
<path d="M462.214 424.5H259.5L248.5 435H448L462.214 424.5Z" fill="black"/>
<path d="M221 459.5L229 450.5H424.5L411 457.5L221 459.5Z" fill="black"/>
<path d="M194 485L357.5 483.5L362 480.5L371.5 475.5H204L194 485Z" fill="black"/>
<path d="M234.5 534.5L263 527.5H443.5L431.5 534.5H234.5Z" fill="black"/>
<path d="M499 476L490 487.5L388 485L408.5 474.5L499 476Z" fill="black"/>
<path d="M515 452L510 461L439.5 459.5L454.5 449L515 452Z" fill="black"/>
<path d="M529 426L523.5 436L476 435L490 424.5L529 426Z" fill="black"/>
<path d="M538 397L536 407.5L509 406.5L519.5 398L538 397Z" fill="black"/>
<path d="M525 189.5L471 131L446 154.5L500 213L525 189.5Z" fill="black" stroke="black" stroke-width="3"/>
<path d="M403.5 242L379 217.5L439.5 161.5L461 186L403.5 242Z" fill="black"/>
<path d="M494 219.5L467.5 192.5L409 249L434 275.5L494 219.5Z" fill="black"/>
<path d="M533 185.5L476.5 125.5L505.5 99.5L529 125.5L509.5 144L514.5 148.5L533.5 129.5L561 159L533 185.5Z" fill="black"/>
<path d="M498.264 92.7923L373.45 209.946C369.965 213.217 369.988 218.758 373.5 222L512 93.5C508.453 89.4069 502.213 89.0854 498.264 92.7923Z" fill="white"/>
<path d="M565.5 152.5L428.5 282C432.168 285.386 437.825 285.379 441.485 281.983L565.707 166.73C569.874 162.865 569.777 156.242 565.5 152.5Z" fill="white"/>
<path d="M499.5 215L493.5 221L439 160.5L445 155.5L499.5 215Z" fill="white"/>
<path d="M435.5 277L429 282.5L372.5 220.5L378.5 215.5L435.5 277Z" fill="white"/>
<path d="M566 153L560 158L504.5 98.5L511.5 93L566 153Z" fill="white"/>
<path d="M532.5 184.5L526 190L471.5 129.5L477.5 124.5L532.5 184.5Z" fill="white"/>
<path d="M462.5 184.5L403 242.5L409 248.5L469.5 191.5L462.5 184.5Z" fill="white"/>
<path d="M514.5 149L509 144L529.5 125L534 130L514.5 149Z" fill="white"/>
<path d="M207 388L181.5 362L157 385L181.5 411.5L207 388Z" fill="black"/>
<path d="M213 394L189 417.5L213 444L237.5 420.5L213 394Z" fill="black"/>
<path d="M119.5 469.5L94.5 442.5L151 391L174 416.5L119.5 469.5Z" fill="black"/>
<path d="M204.5 449L180 422.5L124.5 475.5L148.5 500.5L204.5 449Z" fill="black"/>
<path d="M214 382L187 355.5L215 330.5L240 357L214 382Z" fill="black"/>
<path d="M270 389.5L243.5 414.5L218.5 388L246 362.5L270 389.5Z" fill="black"/>
<path d="M206.52 324.891L88.8237 433.331C84.3705 437.434 84.4415 444.487 88.9764 448.5L219.5 326.555C216.629 322.089 210.425 321.294 206.52 324.891Z" fill="#FFFCFC"/>
<path d="M273.5 385L141.5 507C146.257 511.489 153.691 511.484 158.441 506.987L274.45 397.174C278.079 393.738 277.618 387.831 273.5 385Z" fill="#FFFCFC"/>
<path d="M409 161.5L400.5 170H232.5C231.319 167.934 231.668 165.332 233.35 163.65L238 159L409 161.5Z" fill="black"/>
<path d="M248 147L411.5 144.5L408.452 143.145C404.491 141.385 400.386 139.971 396.181 138.92L392.5 138L254 139C251.678 141.322 249.691 143.956 248.096 146.827L248 147Z" fill="black"/>
<path d="M142 507.5L89 448.5L95.5 442L150.5 500L142 507.5Z" fill="white"/>
<path d="M203.5 450L150.5 391L157 384.5L212 442.5L203.5 450Z" fill="white"/>
<path d="M236.5 423L181 362L188 356L245 415.5L236.5 423Z" fill="white"/>
<path d="M119 468.5L235 360L242.5 367L125.5 475.5L119 468.5Z" fill="#FFF4F4"/>
<path d="M266 393.5L210.5 332.5L219 326.5L274.5 386L266 393.5Z" fill="white"/>
</svg>
